<svg version="1.2" xmlns="http://www.w3.org/2000/svg" viewBox="-381 1099 5957 1672" width="5957" height="1672">
	<style>
		.s0 { fill: #1d1e1c } 
		.s1 { fill: #ffffff } 
	</style>
	<g id="Layer 1">
		<path id="Path 1" fill-rule="evenodd" class="s0" d="m362.78 1381.69c-1.78 116.96-6.13 215.93-9.67 219.93-3.54 4-27.06-12.61-52.26-36.9-26.43-25.48-64.26-51.29-89.38-60.97-29.98-11.57-65.27-16.8-113.23-16.8-50.81 0-83.84 5.28-121.94 19.5-34.8 12.99-70.76 36.28-107.61 69.69-37.9 34.35-63.24 66.64-80.38 102.43-13.77 28.74-31.02 75.78-38.33 104.52-7.32 28.75-13.29 87.54-13.28 130.66 0.01 52.5 5.99 99.96 18.1 143.71 9.95 35.93 28.57 84.5 41.4 107.92 12.82 23.43 38.99 57.88 58.15 76.57 19.17 18.69 60.32 46.45 91.46 61.69 47 23.01 69.19 28.28 130.65 31.01 44.07 1.96 89.91-1.21 113.24-7.83 21.55-6.12 52.91-19.56 69.68-29.88 16.77-10.31 43.33-34.12 59.04-52.9 23.45-28.05 30.04-31.82 36.88-21.08 4.58 7.18 8.39 31.68 8.47 54.44l0.13 41.37h165.49v-1149.75h-163.38z"/>
		<path id="Path 1" fill-rule="evenodd" class="s0" d="m3247.02 1410.42l-0.59 242.02c84.8-81.64 124.12-113.98 142.08-124.53l32.67-19.19-4.36-335.34-169.21-4.99z"/>
		<path id="Path 1" fill-rule="evenodd" class="s0" d="m4967.53 1174.53c-4.16 3.36-6.9 262.19-6.1 575.17l1.45 569.07h174.2l-4.35-1145.39c-122.18-3.85-161.05-2.21-165.2 1.15z"/>
		<path id="Path 1" fill-rule="evenodd" class="s0" d="m5285.16 1743.9v574.87h174.2v-1149.75h-174.2z"/>
		<path id="Path 1" fill-rule="evenodd" class="s0" d="m1866.41 1498.94c-23.96 8.65-55.31 21.73-69.68 29.07-14.38 7.35-38.87 27.57-54.44 44.94-15.57 17.37-32.23 31.58-37.02 31.58-4.79 0-8.71-21.55-8.71-47.9v-47.91h-174.2c0 864.05 2.93 1116.3 6.53 1118 3.59 1.7 42.79 1.7 87.1 0l80.57-3.09c0.21-293.65 3.66-384.78 7.81-391.96 6.15-10.66 14.56-6.41 45.59 22.99 20.93 19.84 53.73 44.37 72.9 54.51 20.36 10.78 60.18 20.77 95.81 24.05 37.52 3.45 82.75 1.32 117.59-5.52 31.14-6.12 74.25-20.88 95.81-32.81 21.56-11.93 60.12-41.81 85.7-66.41 25.57-24.59 82.64-99.59 126.82-166.66 44.17-67.07 99.13-151.34 122.13-187.27 23.01-35.93 51.37-79.05 63.04-95.81 11.67-16.77 39.65-49.7 62.18-73.18 22.64-23.6 61.42-51.85 86.69-63.15 27.01-12.08 62.67-20.5 87.1-20.56 22.76-0.05 59.02 5.73 80.57 12.85 26.9 8.88 48.61 24.63 69.2 50.18 16.5 20.48 34.67 49 40.38 63.37 5.71 14.37 12.79 38.87 15.73 54.44l5.35 28.31h-409.38c-37.38 50.63-62.24 86.88-79.37 113.23-17.13 26.35-43.57 67.5-58.77 91.46-18.3 28.84-25.78 49.43-22.16 60.97 3 9.58 16.54 37.02 30.09 60.97 13.54 23.95 39.56 57.85 57.82 75.32 18.25 17.47 56.71 44.02 85.45 59 28.75 14.97 73.82 31.08 100.17 35.79 26.35 4.7 74.36 8.53 106.7 8.5 32.34-0.03 79.37-4.45 104.52-9.83 25.15-5.38 61.41-17.67 80.57-27.29 19.16-9.63 54.44-33.07 78.39-52.08 23.96-19.01 55.64-48.87 70.41-66.35 14.76-17.47 46.56-61.17 70.65-97.1 24.09-35.93 78.64-117.78 121.22-181.9 42.58-64.12 85.64-128.8 95.69-143.72 10.05-14.93 33.57-40.55 52.26-56.95 18.7-16.39 49.67-36.88 68.83-45.53 21.41-9.67 55.84-15.81 89.28-15.92 29.94-0.11 65.22 5.16 78.39 11.7 13.18 6.55 34.74 24.19 47.91 39.2 13.17 15.01 27.85 41.99 32.61 59.96 4.85 18.25 8.69 150.82 8.71 300.5l0.05 267.84h182.92c-5.03-558.43-7.4-602.79-21.19-644.55-8.69-26.35-26.11-61.62-38.69-78.37-12.58-16.75-30.71-37.57-40.29-46.26-9.58-8.69-38.98-26.05-65.33-38.58-32.08-15.25-68.04-24.16-108.87-26.96-36.56-2.51-78.41 0.44-104.53 7.35-23.95 6.35-63.14 20.72-87.1 31.94-23.95 11.22-69.03 39.41-100.16 62.64-31.14 23.23-78.59 67.29-105.44 97.9-26.85 30.61-87.18 112.5-134.06 181.96-46.88 69.46-93.51 137.72-103.61 151.67-10.1 13.96-42.86 50.22-72.81 80.57-29.94 30.36-73.05 63.77-95.81 74.25-31.27 14.41-58.39 19.16-111.05 19.45-55.07 0.31-76.99-3.52-104.53-18.26-19.16-10.26-45.36-29.79-58.23-43.4-12.87-13.61-31.74-44.35-41.94-68.3-10.2-23.95-19.27-57.27-20.15-74.04l-1.62-30.48 486.92-8.71c78.47-114.76 101.23-153.96 101.21-161.14-0.02-7.19-7.93-36.59-17.58-65.33-9.64-28.74-35.16-74.8-56.69-102.34-21.53-27.55-57.77-61.99-80.53-76.53-22.75-14.54-66.85-34.23-97.99-43.74-34.19-10.44-80.75-17.17-117.58-16.99-42.96 0.21-81.66 7.35-130.96 24.14-47.06 16.03-85.8 36.68-118.25 63.03-26.55 21.56-72.05 70.56-101.11 108.88-29.06 38.33-61.16 85.36-71.34 104.52-10.18 19.16-37.05 64.68-59.73 101.15-22.67 36.47-61.23 93.3-85.69 126.3-24.45 32.99-63.65 76.39-87.1 96.43-23.45 20.04-63.22 46.5-88.37 58.79-33.97 16.61-59.72 22.41-100.16 22.57-30.48 0.12-69.78-5.99-89.28-13.88-19.17-7.74-45.99-24.5-59.61-37.23-13.62-12.73-33.81-40.78-44.87-62.34-11.06-21.55-24.76-64.67-30.45-95.81-6.06-33.14-7.95-80.09-4.55-113.23 3.19-31.14 15.52-78.17 27.38-104.52 11.87-26.35 34.11-60.84 49.42-76.64 17.89-18.47 44.95-33.64 75.74-42.46 31.99-9.17 63.11-11.93 93.64-8.29 25.15 2.99 56.5 10.99 69.68 17.77 13.17 6.77 36.22 25.39 51.21 41.37 15 15.98 32.22 38.85 38.28 50.83 6.05 11.97 16.28 39.41 22.72 60.97 6.45 21.56 11.63 72.51 11.53 113.23l-0.19 74.04c28.37-27 57.44-66.2 82.9-104.53 25.47-38.32 53.61-84.37 62.55-102.34 14.56-29.26 15.03-36.52 4.53-69.68-6.45-20.36-20.14-50.74-30.42-67.51-10.28-16.76-30.48-43.82-44.89-60.13-14.41-16.3-40.89-38.84-58.86-50.08-17.96-11.24-56.18-28.28-84.92-37.86-30.74-10.24-74.68-17.29-106.7-17.1-29.94 0.17-74.04 7.38-97.99 16.03z"/>
		<path id="Path 1" fill-rule="evenodd" class="s0" d="m4344.46 1504.24c-35.93 12.1-86.29 36.67-111.91 54.61-25.62 17.94-60.52 52.22-77.57 76.17-17.04 23.95-40.7 69.03-52.57 100.17-16.19 42.47-22.65 79.45-25.85 148.07-2.65 56.93-0.19 109.54 6.53 139.36 5.94 26.35 21.54 71.43 34.66 100.17 13.13 28.74 41.09 71.37 62.14 94.73 21.05 23.36 61.79 55.31 90.53 70.99 28.74 15.69 72.84 32.83 97.99 38.1 25.15 5.27 76.1 9.53 113.23 9.48 37.13-0.06 87.1-5.35 111.06-11.76 23.95-6.41 63.14-21.5 87.1-33.54 23.95-12.04 60.76-41.05 81.79-64.46 21.03-23.41 47.87-64.13 59.64-90.48 11.78-26.34 18.09-50.63 14.03-53.97-4.06-3.34-42.67-8.82-85.78-12.19-77.59-6.06-78.45-5.9-84.29 14.78-3.24 11.49-23.82 37.56-45.73 57.92-24.09 22.39-54.46 40.84-76.85 46.69-20.36 5.33-58.57 7.8-84.92 5.5-26.35-2.3-63.59-12.18-82.75-21.95-19.16-9.77-45.37-28.9-58.24-42.51-12.88-13.61-33.41-46.31-45.65-72.66-12.23-26.35-22.27-58.68-22.32-71.86-0.05-13.6 5.56-25.83 12.98-28.3 7.18-2.4 143.39-4.34 302.68-4.31l289.61 0.05c-9.15-131.71-19.3-191.51-28.46-217.85-9.16-26.35-24.02-59.67-33.03-74.04-9.02-14.37-28.26-41.06-42.78-59.3-14.51-18.24-40.1-41.96-56.87-52.71-16.76-10.74-52.04-28.57-78.39-39.6-34.06-14.26-70.56-21.1-126.3-23.68-66.88-3.08-87.98-0.38-143.71 18.38z"/>
		<path id="Path 1" fill-rule="evenodd" class="s0" d="m668.7 1780.91c-0.02 149.71 3.81 293.76 8.52 320.1 4.71 26.35 16.09 65.55 25.29 87.11 9.81 22.99 35.99 56.57 63.34 81.23 32.8 29.57 60.83 46.04 94.53 55.54 32.33 9.12 70.57 12.29 117.59 9.74 50.89-2.76 81.16-9.52 112.25-25.06 23.42-11.71 56.74-37.77 74.04-57.93 17.31-20.15 34.4-36.81 38-37.01 3.59-0.21 6.59 18.23 6.66 40.99 0.08 22.76 3.01 46.32 6.53 52.37 4.57 7.86 28.82 10.35 84.8 8.71l78.39-2.29v-801.33l-178.56-4.36c-0.32 388.15-4.19 516.52-8.81 535.68-4.61 19.16-19.21 50.02-32.45 68.58-13.24 18.56-38.77 41.1-56.73 50.08-17.97 8.99-47.36 18.79-65.33 21.78-20.3 3.38-49.96 0.09-78.39-8.71-31.87-9.86-52.1-22.72-66.77-42.45-11.58-15.57-27.18-51.83-34.68-80.57-10.81-41.39-13.68-103.45-13.8-298.33l-0.16-246.06h-174.2z"/>
		<path id="Path 1" fill-rule="evenodd" class="s0" d="m3345.37 1955.12c-33.47 53.89-69.18 111.71-79.36 128.47-16.03 26.42-18.54 44.16-18.77 132.83l-0.27 102.35h174.21c0-357.77-3.37-461.64-7.48-461.64-4.11 0-34.85 44.09-68.33 97.99z"/>
		<path id="Path 2" fill-rule="evenodd" class="s1" d="m4374.94 1642.66c-23.95 11.3-52.15 29.88-62.65 41.29-10.51 11.41-26.83 38.39-36.27 59.95-9.44 21.55-18.48 48.99-20.09 60.97l-2.93 21.77 413.73 4.36c0.23-37.13-4.31-61.63-9.94-78.39-5.63-16.77-21.86-44.21-36.07-60.97-14.21-16.77-43.96-39.26-66.12-49.98-26.7-12.91-56.46-19.49-88.2-19.51-32.26-0.02-62.14 6.68-91.46 20.51zm-4294.12-4.67c-14.37 3.61-39.85 14.8-56.62 24.87-16.76 10.06-41.25 33.4-54.41 51.85-13.16 18.45-30.18 53.14-37.81 77.09-7.64 23.96-14.21 74.91-14.6 113.24-0.42 40.72 5.14 89.58 13.37 117.58 7.74 26.35 26.06 64.57 40.7 84.93 16.19 22.51 43.69 45.55 70.17 58.79 32.74 16.37 57.07 21.73 97.99 21.58 34.28-0.12 67.34-6.16 89.28-16.32 19.16-8.87 45.41-27.4 58.33-41.18 12.92-13.78 31.29-42.69 40.82-64.25 9.54-21.55 21.4-64.67 26.37-95.81 6.12-38.42 6.2-76.21 0.27-117.59-4.82-33.53-17.3-78.61-27.73-100.16-10.44-21.56-30.9-50.26-45.46-63.77-14.55-13.52-37.25-30.18-50.42-37.02-13.17-6.85-46.49-14.23-74.04-16.42-27.54-2.18-61.84-1.02-76.21 2.59z"/>
	</g>
</svg>